<svg xmlns="http://www.w3.org/2000/svg" xmlns:xlink="http://www.w3.org/1999/xlink" id="Layer_1" viewBox="0 0 1227.44 333.26"><defs><style>.cls-1{fill:url(#linear-gradient-2);}.cls-2{fill:#fff;}.cls-3{fill:url(#linear-gradient-17);}.cls-4{fill:url(#linear-gradient-15);}.cls-5{fill:url(#linear-gradient-18);}.cls-6{fill:url(#linear-gradient-14);}.cls-7{fill:url(#linear-gradient-20);}.cls-8{fill:url(#linear-gradient-6);}.cls-9{fill:url(#linear-gradient-11);}.cls-10{fill:url(#linear-gradient-10);}.cls-11{fill:url(#linear-gradient-16);}.cls-12{fill:url(#linear-gradient-21);}.cls-13{fill:#309;}.cls-14{fill:url(#linear-gradient-5);}.cls-15{fill:url(#linear-gradient-7);}.cls-16{fill:url(#linear-gradient-9);}.cls-17{fill:url(#linear-gradient-3);}.cls-18{fill:url(#linear-gradient);}.cls-19{fill:url(#linear-gradient-19);}.cls-20{fill:url(#linear-gradient-4);}.cls-21{fill:url(#linear-gradient-8);}.cls-22{fill:url(#linear-gradient-12);}.cls-23{fill:url(#linear-gradient-13);}</style><linearGradient id="linear-gradient" x1="333.93" y1="10.48" x2="333.93" y2="261.59" gradientUnits="userSpaceOnUse"><stop offset=".11" stop-color="#00defc"></stop><stop offset=".21" stop-color="#01d9f9"></stop><stop offset=".33" stop-color="#04cbf3"></stop><stop offset=".46" stop-color="#09b5e9"></stop><stop offset=".59" stop-color="#1096db"></stop><stop offset=".72" stop-color="#196dc9"></stop><stop offset=".86" stop-color="#253cb3"></stop><stop offset=".99" stop-color="#32029a"></stop><stop offset="1" stop-color="#309"></stop></linearGradient><linearGradient id="linear-gradient-2" x1="401.19" y1="10.48" x2="401.19" y2="261.59" xlink:href="#linear-gradient"></linearGradient><linearGradient id="linear-gradient-3" x1="329.69" y1="10.48" x2="329.69" y2="261.59" xlink:href="#linear-gradient"></linearGradient><linearGradient id="linear-gradient-4" x1="442.41" y1="10.48" x2="442.41" y2="261.59" xlink:href="#linear-gradient"></linearGradient><linearGradient id="linear-gradient-5" x1="444.17" y1="10.48" x2="444.17" y2="261.59" xlink:href="#linear-gradient"></linearGradient><linearGradient id="linear-gradient-6" x1="396.11" y1="10.48" x2="396.11" y2="261.59" xlink:href="#linear-gradient"></linearGradient><linearGradient id="linear-gradient-7" x1="335.7" y1="10.48" x2="335.7" y2="261.59" xlink:href="#linear-gradient"></linearGradient><linearGradient id="linear-gradient-8" x1="331.84" y1="10.48" x2="331.84" y2="261.59" xlink:href="#linear-gradient"></linearGradient><linearGradient id="linear-gradient-9" x1="209.28" y1="10.48" x2="209.28" y2="261.59" xlink:href="#linear-gradient"></linearGradient><linearGradient id="linear-gradient-10" x1="199.32" y1="10.48" x2="199.32" y2="261.59" xlink:href="#linear-gradient"></linearGradient><linearGradient id="linear-gradient-11" x1="161.09" y1="10.48" x2="161.09" y2="261.59" xlink:href="#linear-gradient"></linearGradient><linearGradient id="linear-gradient-12" x1="186.39" y1="10.48" x2="186.39" y2="261.59" xlink:href="#linear-gradient"></linearGradient><linearGradient id="linear-gradient-13" x1="209.31" y1="10.48" x2="209.31" y2="261.59" xlink:href="#linear-gradient"></linearGradient><linearGradient id="linear-gradient-14" x1="330.67" y1="10.48" x2="330.67" y2="261.59" xlink:href="#linear-gradient"></linearGradient><linearGradient id="linear-gradient-15" x1="290.82" y1="10.48" x2="290.82" y2="261.59" xlink:href="#linear-gradient"></linearGradient><linearGradient id="linear-gradient-16" x1="265.32" y1="10.48" x2="265.32" y2="261.59" xlink:href="#linear-gradient"></linearGradient><linearGradient id="linear-gradient-17" x1="451.14" y1="10.48" x2="451.14" y2="261.59" xlink:href="#linear-gradient"></linearGradient><linearGradient id="linear-gradient-18" x1="199.32" y1="10.48" x2="199.32" y2="261.59" xlink:href="#linear-gradient"></linearGradient><linearGradient id="linear-gradient-19" x1="203.31" y1="10.48" x2="203.31" y2="261.59" xlink:href="#linear-gradient"></linearGradient><linearGradient id="linear-gradient-20" x1="203.7" y1="10.48" x2="203.7" y2="261.59" xlink:href="#linear-gradient"></linearGradient><linearGradient id="linear-gradient-21" x1="206.56" y1="10.48" x2="206.56" y2="261.59" xlink:href="#linear-gradient"></linearGradient></defs><g><path class="cls-18" d="M332.93,39.63c-2.12,0-3.92-1.63-4.1-3.77,0-.11-.01-.23-.01-.34,0-2.12,1.62-3.92,3.77-4.1l.56-.05c.53-.05,1.05-.09,1.58-.12,2.3-.15,4.2,1.64,4.31,3.91,.11,2.27-1.64,4.2-3.91,4.31-.42,.02-.83,.06-1.24,.09l-.62,.06c-.12,0-.23,.01-.35,.01Z"></path><path class="cls-1" d="M405.96,136.4c-1.51,0-2.97-.84-3.69-2.28-5.56-11.18-8.91-23.36-9.94-36.17-.18-2.26,1.5-4.24,3.75-4.43,2.27-.19,4.25,1.48,4.44,3.74,.99,11.19,4.15,22.7,9.14,33.28,.96,2.04,.1,4.48-1.93,5.46-.58,.28-1.19,.41-1.79,.41Z"></path><path class="cls-17" d="M328.64,40.15c-1.99,0-3.74-1.44-4.06-3.47-.03-.22-.05-.44-.05-.65,0-1.99,1.44-3.73,3.47-4.06l.34-.05c.63-.1,1.26-.2,1.9-.28h.01c2.26-.28,4.3,1.34,4.58,3.59,.27,2.26-1.34,4.31-3.59,4.58-.54,.07-1.07,.15-1.6,.24l-.35,.06c-.22,.03-.44,.05-.65,.05Z"></path><path class="cls-20" d="M468.43,181.34c-27.92,0-51.97-17.14-66.19-47.29-.01-.03-.03-.06-.04-.09-5.39-11.48-8.79-23.89-9.86-35.98-.15-1.88-.29-3.72-.34-5.59-.04-1.38-.16-2.75-.3-4.11-.22-2.26,1.43-4.28,3.69-4.5,2.25-.21,4.27,1.43,4.5,3.69,.15,1.55,.29,3.11,.33,4.69,.05,1.73,.18,3.42,.31,5.12,.99,11.14,4.14,22.63,9.12,33.2,1.57,3.15,3.14,5.92,4.79,8.46h0s.01,.02,.02,.03c0,0,0,0,0,0,0,0,0,.02,.01,.02,0,0,0,0,0,.01,0,0,0,0,.01,.02,0,0,0,.01,0,.02,0,0,0,0,0,.01,0,0,0,.02,.01,.02,0,0,0,0,0,0,0,0,.01,.02,.02,.03,0,0,0,0,0,0,0,0,.01,.02,.02,.03,0,0,0,0,0,0,0,0,.01,.02,.02,.03,0,0,0,0,0,0,0,0,.01,.02,.02,.03,0,0,0,0,0,0,0,0,.01,.02,.02,.03h0s.01,.02,.02,.03h0s.01,.02,.02,.03h0s.01,.02,.02,.03h0s.04,.06,.06,.09c.29,.44,.48,.91,.59,1.4,9.13,14.38,26.4,32.96,54.71,32.25,4.87-.13,9.26-2.56,12.06-6.66,2.9-4.24,3.59-9.65,1.85-14.46-2.23-6.19-7.58-10.5-13.64-10.99-22.55-1.82-38.91-27.61-39.49-49.62-.07-2.73-.27-5.55-.59-8.4-.25-2.26,1.37-4.29,3.63-4.54,2.25-.31,4.29,1.37,4.55,3.63,.34,3.07,.56,6.13,.63,9.1,.49,18.47,14.25,40.2,31.93,41.63,9.26,.75,17.39,7.19,20.72,16.4,2.63,7.29,1.58,15.47-2.8,21.89-4.31,6.31-11.1,10.05-18.64,10.25-.62,.02-1.24,.02-1.86,.02Z"></path><path class="cls-14" d="M471.95,160.73c-1.63,0-3.27-.08-4.87-.23l-.31-.03c-30.61-2.97-54.38-32.46-55.34-68.6-.07-2.47-.29-5.13-.68-8.11-.02-.18-.04-.36-.04-.54,0-2.04,1.51-3.81,3.58-4.08,2.24-.28,4.32,1.3,4.61,3.55,.43,3.26,.67,6.19,.74,8.95,.85,31.99,21.43,58.05,47.87,60.62l.3,.03c1.86,.17,3.73,.23,5.58,.17,2.18-.12,4.17,1.71,4.24,3.98,0,.05,0,.09,0,.13,0,2.21-1.75,4.04-3.98,4.11-.57,.02-1.14,.03-1.71,.03Z"></path><path class="cls-8" d="M396.43,101.73c-2.11,0-3.9-1.61-4.09-3.75-.16-1.88-.29-3.75-.34-5.59-.04-1.39-.16-2.75-.3-4.11-.22-2.26,1.43-4.27,3.69-4.49,2.28-.19,4.27,1.43,4.5,3.69,.15,1.55,.29,3.11,.33,4.69,.05,1.73,.18,3.42,.31,5.12,.18,2.26-1.5,4.24-3.76,4.43-.12,0-.23,.01-.35,.01Z"></path><path class="cls-15" d="M334.93,39.47c-2.18,0-3.99-1.7-4.11-3.9-.12-2.27,1.63-4.2,3.9-4.32,.38-.02,.75-.03,1.13-.03h.5c1.18,.02,2.22,.4,3.01,1.19,1.17,1.17,1.53,2.92,.91,4.45-.62,1.53-2.08,2.55-3.73,2.58h-.6c-.09,0-.18,0-.27,0h-.54c-.07,.02-.14,.02-.21,.02Z"></path><path class="cls-21" d="M330.74,39.83c-2.05,0-3.83-1.53-4.08-3.62-.27-2.26,1.33-4.31,3.59-4.58h0c.63-.08,1.25-.13,1.88-.18l.45-.04c2.26-.22,4.25,1.49,4.45,3.75,0,.12,.01,.24,.01,.35,0,2.12-1.62,3.92-3.77,4.1l-.48,.04s-.1,0-.15,.01c-.47,.04-.95,.08-1.42,.13-.17,.02-.33,.03-.5,.03Z"></path><path class="cls-16" d="M270.18,286.67c-1.99,0-3.74-1.45-4.06-3.48-2-12.77-7.62-25.05-16.24-35.53-11.15-13.56-26.05-22.66-41.94-25.63-15.63-2.92-30.31,.47-41.34,9.55-7.33,6.03-12.61,14.31-15.28,23.95-2.87,10.35-12.5,17.25-23.32,17.03-7.29-.22-13.95-3.71-18.27-9.58-4.34-5.9-5.7-13.34-3.72-20.41,5.25-18.8,15.86-35.17,30.67-47.35,20.91-17.2,48.04-24.29,76.4-19.96,28.19,4.31,54.18,19.39,73.18,42.48,15.45,18.78,24.83,41.05,27.14,64.4,.22,2.26-1.43,4.28-3.69,4.5-2.26,.21-4.28-1.43-4.5-3.69-2.15-21.73-10.9-42.47-25.31-59.98-17.71-21.52-41.88-35.58-68.07-39.58-26.02-3.96-50.85,2.48-69.93,18.18-13.5,11.11-23.17,26.05-27.97,43.21-1.29,4.62-.4,9.47,2.43,13.33,2.81,3.82,7.14,6.09,11.88,6.23,7.11,.36,13.3-4.32,15.15-11,3.12-11.28,9.34-20.99,17.98-28.11,12.94-10.65,30.03-14.66,48.08-11.28,17.79,3.32,34.41,13.44,46.79,28.49,9.55,11.61,15.78,25.27,18.01,39.49,.35,2.24-1.18,4.35-3.43,4.7-.22,.03-.43,.05-.64,.05Z"></path><path class="cls-10" d="M148.29,286.71c-1.42,0-2.79-.73-3.56-2.04-1.14-1.97-.48-4.48,1.49-5.62,1.71-1,3.27-2.07,4.64-3.19,5.49-4.52,9.39-10.51,11.27-17.33,2.09-7.52,5.99-13.67,11.6-18.29,8.85-7.28,20.92-9.66,34.01-6.7,12.69,2.88,24.59,10.42,33.5,21.25,6.51,7.92,11.06,17.22,13.14,26.91,.48,2.22-.94,4.41-3.16,4.89-2.22,.48-4.41-.94-4.89-3.16-1.81-8.41-5.77-16.51-11.45-23.41-7.64-9.29-18.2-16.01-28.96-18.46-10.54-2.38-20.12-.6-26.96,5.03-4.28,3.52-7.28,8.27-8.9,14.13-2.34,8.46-7.17,15.89-13.98,21.49-1.71,1.41-3.64,2.74-5.73,3.95-.65,.38-1.36,.56-2.06,.56Z"></path><path class="cls-9" d="M109.21,286.73c-.7,0-1.41-.18-2.06-.56-5.18-3.01-9.58-6.94-13.06-11.67-5.53-7.52-8.4-16.4-8.4-25.46,0-3.9,.53-7.83,1.62-11.7,6.33-22.64,19.13-42.4,37.04-57.13,29.46-24.23,70.29-31.78,109.23-20.19,1.79,.53,2.94,2.17,2.94,3.94,0,.39-.06,.78-.17,1.17-.65,2.18-2.94,3.41-5.12,2.77-36.31-10.82-74.31-3.84-101.65,18.66-16.6,13.66-28.47,31.98-34.34,52.99-.87,3.13-1.31,6.31-1.31,9.47,0,7.33,2.32,14.52,6.8,20.6,2.81,3.82,6.36,6.99,10.57,9.44,1.31,.76,2.05,2.14,2.05,3.56,0,.7-.18,1.41-.56,2.06-.76,1.32-2.14,2.05-3.56,2.05Z"></path><path class="cls-22" d="M80.57,285.99c-1.31,0-2.6-.63-3.4-1.79-7.19-10.51-10.91-22.78-10.91-35.22,0-5.64,.77-11.32,2.32-16.88,7.4-26.49,22.41-49.63,43.41-66.91,55.39-45.57,138.5-38.79,193.31,15.77,.81,.8,1.21,1.86,1.21,2.92,0,1.05-.4,2.1-1.2,2.9-1.6,1.61-4.21,1.62-5.82,.01-51.81-51.57-130.17-58.12-182.28-15.25-19.69,16.2-33.77,37.91-40.71,62.77-1.35,4.83-2.02,9.76-2.02,14.66,0,10.8,3.23,21.46,9.47,30.59,.48,.71,.72,1.52,.72,2.32,0,1.31-.63,2.6-1.79,3.4-.71,.49-1.52,.72-2.32,.72Z"></path><path class="cls-23" d="M367.71,286.63c-2.15,0-3.96-1.67-4.1-3.85-2.24-35.35-15.61-68.84-38.67-96.86-56.93-69.2-155.65-82.37-220.07-29.38-22.78,18.74-39.06,43.83-47.08,72.54-4.12,14.72-3.63,30.05,1.42,44.32,.76,2.14-.37,4.49-2.51,5.25-2.14,.76-4.49-.37-5.25-2.51-5.61-15.88-6.16-32.92-1.58-49.28,8.48-30.34,25.69-56.86,49.78-76.68,67.92-55.88,171.83-42.2,231.64,30.5,24.16,29.37,38.18,64.49,40.53,101.57,.14,2.27-1.58,4.22-3.85,4.37-.09,0-.18,0-.26,0Z"></path><path class="cls-6" d="M348.23,286.64c-2.14,0-3.94-1.65-4.1-3.82-2.22-30.82-14.05-60.05-34.21-84.55-.63-.77-.94-1.69-.94-2.61,0-1.19,.51-2.37,1.5-3.18,1.75-1.45,4.35-1.19,5.79,.56,21.25,25.83,33.72,56.67,36.06,89.19,0,.1,0,.2,0,.3,0,2.14-1.65,3.95-3.82,4.1-.1,0-.2,0-.3,0Z"></path><path class="cls-4" d="M328.77,286.65c-2.12,0-3.92-1.62-4.1-3.77-2.19-26.28-12.48-51.26-29.76-72.26-12.23-14.86-26.99-26.62-43.87-34.94-1.45-.71-2.3-2.17-2.3-3.69,0-.61,.14-1.23,.42-1.82,1-2.04,3.47-2.89,5.51-1.87,17.93,8.84,33.61,21.31,46.58,37.08,18.34,22.3,29.27,48.86,31.6,76.8,0,.12,.01,.24,.01,.35,0,2.12-1.62,3.91-3.77,4.09-.12,0-.23,.01-.35,.01Z"></path><path class="cls-11" d="M367.71,286.63c-2.15,0-3.96-1.67-4.1-3.85-2.24-35.35-15.61-68.84-38.67-96.86-56.93-69.2-155.65-82.37-220.07-29.38-22.78,18.74-39.06,43.83-47.08,72.54-4.12,14.72-3.63,30.05,1.42,44.32,.76,2.14-.37,4.49-2.51,5.25-2.14,.76-4.49-.37-5.25-2.51-5.61-15.88-6.16-32.92-1.58-49.28,8.48-30.34,25.69-56.86,49.78-76.68,67.92-55.88,171.83-42.2,231.64,30.5,24.16,29.37,38.18,64.49,40.53,101.57,.14,2.27-1.58,4.22-3.85,4.37-.09,0-.18,0-.26,0Zm19.41,0c-2.17,0-3.98-1.69-4.1-3.88-.75-13.17-2.86-26.16-6.29-38.61-.1-.37-.15-.73-.15-1.09,0-1.81,1.2-3.47,3.02-3.97,2.2-.6,4.46,.69,5.06,2.87,3.58,13.01,5.79,26.58,6.57,40.33,0,.08,0,.16,0,.24,0,2.16-1.69,3.98-3.88,4.1-.08,0-.16,0-.24,0Zm19.55,0c-2.17,0-3.99-1.7-4.11-3.9-.6-11.37-2.16-22.74-4.64-33.81-.07-.3-.1-.61-.1-.9,0-1.88,1.3-3.58,3.22-4.01,2.22-.48,4.42,.9,4.91,3.11,2.58,11.52,4.21,23.36,4.83,35.18,0,.08,0,.15,0,.23,0,2.17-1.7,3.98-3.9,4.1-.07,0-.15,0-.22,0Zm19.52,0c-2.17,0-3.99-1.7-4.11-3.9-.42-8.01-1.26-15.96-2.49-23.63-.04-.22-.05-.44-.05-.66,0-1.98,1.44-3.73,3.46-4.05,2.23-.36,4.35,1.16,4.71,3.41,1.28,7.96,2.15,16.21,2.58,24.51,0,.07,0,.14,0,.21,0,2.18-1.7,4-3.9,4.11-.07,0-.15,0-.22,0Zm19.23-1.42c-2.18,0-4-1.71-4.11-3.91-.29-6-.78-11.83-1.44-17.32-.02-.17-.03-.33-.03-.5,0-2.05,1.53-3.83,3.62-4.08,2.26-.28,4.3,1.34,4.58,3.59,.69,5.68,1.19,11.7,1.49,17.9,0,.07,0,.13,0,.2,0,2.18-1.71,4-3.91,4.11-.07,0-.14,0-.2,0Zm18.63-5.03c-2.16,0-3.97-1.68-4.1-3.86-.32-5.19-.6-8.84-.61-8.85,0-.11-.01-.22-.01-.33,0-2.13,1.64-3.92,3.8-4.09,2.24-.17,4.24,1.52,4.42,3.78,0,0,.29,3.71,.61,8.98,0,.08,0,.17,0,.25,0,2.16-1.68,3.98-3.86,4.11-.09,0-.17,0-.26,0Zm-432.01-16.54c-2.07,0-3.86-1.56-4.09-3.67-.39-3.65-.59-7.3-.59-10.95,0-9.22,1.26-18.39,3.78-27.38,9.55-34.19,28.97-64.09,56.15-86.45,35.28-29.03,80.55-42.52,127.47-37.95,12.8,1.25,25.6,3.87,38.05,7.79,1.76,.55,2.88,2.17,2.88,3.92,0,.41-.06,.83-.19,1.23-.68,2.17-2.99,3.38-5.16,2.69-11.91-3.75-24.14-6.26-36.37-7.45-44.75-4.35-87.86,8.48-121.45,36.11-25.87,21.29-44.35,49.75-53.45,82.31-2.31,8.26-3.47,16.69-3.47,25.17,0,3.35,.18,6.71,.54,10.06,.02,.15,.02,.3,.02,.44,0,2.08-1.56,3.86-3.67,4.09-.15,.02-.3,.02-.45,.02Zm439.89-5.73c-4.64,0-9.28-.21-13.91-.64l-.78-.08c-79.41-7.72-140.9-77.86-142.98-163.14,0-.2,0-.4,0-.59,0-6.54,2.66-12.76,7.35-17.14,4.96-4.64,11.57-6.83,18.59-6.18,12.51,1.16,20.82,10.21,21.16,23.07,.28,10.39,1.76,20.69,4.41,30.61,.09,.36,.14,.71,.14,1.06,0,1.82-1.21,3.48-3.05,3.97-2.19,.59-4.45-.72-5.04-2.92-2.81-10.55-4.39-21.48-4.68-32.52-.23-8.68-5.35-14.33-13.69-15.1-4.65-.45-8.99,.99-12.21,4-3.07,2.87-4.74,6.79-4.74,11.1,0,.14,0,.28,0,.42,1.97,81.13,60.27,147.84,135.62,155.16l.46,.05c14.34,1.33,28.54,.53,42.42-2.36,2.22-.47,4.4,.97,4.86,3.19,.06,.28,.09,.56,.09,.84,0,1.91-1.34,3.62-3.28,4.03-10.13,2.11-20.41,3.16-30.72,3.16ZM13,238.62c-.17,0-.35,0-.52-.03-2.08-.26-3.6-2.03-3.6-4.07,0-.17,.01-.35,.03-.53,.77-6.1,1.96-12.01,3.51-17.59,10.63-38.05,32.25-71.32,62.52-96.23,39.29-32.33,89.61-47.34,141.7-42.28,32.82,3.19,65.28,14.59,93.86,32.95,1.22,.79,1.89,2.12,1.89,3.47,0,.76-.21,1.53-.65,2.21-1.23,1.92-3.78,2.47-5.68,1.24-27.48-17.66-58.68-28.62-90.21-31.69-49.89-4.84-98.08,9.52-135.68,40.45-28.96,23.83-49.65,55.67-59.82,92.09-1.45,5.19-2.55,10.71-3.28,16.41-.26,2.08-2.03,3.59-4.08,3.59Zm459.1-.14c-4.29,0-8.59-.21-12.91-.63-69.83-6.79-123.78-68.93-125.5-144.53v-.09c0-2.23,1.78-4.06,4.02-4.11,2.2-.06,4.15,1.75,4.21,4.02,1.62,71.45,52.38,130.15,118.07,136.53,19.72,1.91,39.1-.84,57.61-8.19,2.11-.85,4.5,.2,5.34,2.3,.2,.5,.29,1.02,.29,1.52,0,1.64-.98,3.18-2.6,3.82-15.68,6.23-31.96,9.36-48.53,9.36Zm-.08-19.43c-3.64,0-7.3-.18-10.95-.54-44.07-4.29-81.98-34.61-98.92-79.14-.18-.48-.27-.98-.27-1.46,0-1.66,1.01-3.22,2.65-3.85,2.12-.81,4.5,.26,5.31,2.38,15.83,41.59,51.09,69.89,92.03,73.88,21.37,2.11,42.71-2.46,61.74-13.19,1.98-1.11,4.49-.41,5.6,1.56,.36,.64,.53,1.33,.53,2.02,0,1.44-.75,2.83-2.1,3.59-17.26,9.72-36.3,14.74-55.63,14.74Zm.16-19.42c-2.85,0-5.74-.13-8.69-.4l-.53-.05c-50.07-4.87-88.93-50.55-90.41-106.25-.06-2.36-.35-4.74-.85-7.07-.48-2.22,.94-4.41,3.16-4.88,2.22-.49,4.41,.94,4.88,3.16,.6,2.83,.95,5.72,1.03,8.58,1.37,51.56,37.04,93.81,82.96,98.28l.51,.05c22.41,2.08,41.82-4.57,51.88-17.79,2.88-3.78,5.11-8.29,6.43-13.04,.61-2.19,2.88-3.46,5.07-2.86,2.19,.61,3.47,2.88,2.86,5.07-1.62,5.82-4.25,11.15-7.81,15.82-10.42,13.68-28.91,21.4-50.5,21.4ZM4.11,197.1c-.49,0-.99-.09-1.48-.28-2.12-.82-3.17-3.2-2.35-5.32,12.4-32.07,31.78-59.76,57.6-82.3,1.71-1.5,4.31-1.32,5.81,.39,1.49,1.71,1.32,4.31-.4,5.8-24.8,21.65-43.42,48.26-55.33,79.07-.63,1.63-2.19,2.63-3.84,2.63Zm308.36-51.9c-.89,0-1.78-.28-2.53-.87-13.93-10.89-29.23-19.76-45.46-26.37-1.59-.65-2.56-2.18-2.56-3.81,0-.52,.1-1.04,.31-1.55,.86-2.1,3.25-3.12,5.36-2.26,16.94,6.89,32.89,16.14,47.43,27.5,1.04,.81,1.58,2.02,1.58,3.25,0,.88-.28,1.78-.87,2.53-.81,1.04-2.02,1.58-3.25,1.58Zm-9.13-52.22c-.66,0-1.33-.16-1.95-.49-26.43-14.26-54.58-22.92-83.67-25.75-35.59-3.45-71.29,2.12-103.21,16.14-2.08,.9-4.51-.03-5.42-2.11-.24-.54-.35-1.1-.35-1.65,0-1.58,.92-3.09,2.46-3.77,33.2-14.58,70.32-20.38,107.32-16.79,30.19,2.93,59.38,11.92,86.78,26.7,1.38,.74,2.16,2.16,2.16,3.62,0,.66-.16,1.33-.49,1.95-.74,1.38-2.16,2.16-3.62,2.16Zm5.34-19.14c-.64,0-1.28-.15-1.89-.46-11.41-5.9-23.32-10.93-35.4-14.95-1.73-.57-2.82-2.18-2.82-3.91,0-.43,.07-.87,.21-1.3,.71-2.15,3.03-3.32,5.2-2.61,12.48,4.15,24.79,9.35,36.58,15.45,1.42,.73,2.23,2.17,2.22,3.66,0,.64-.15,1.28-.46,1.88-.73,1.41-2.17,2.22-3.66,2.22Zm54.21-6.19c-.93,0-1.86-.31-2.62-.95-5.29-4.39-11.88-7.06-19.03-7.72h-.02c-5.02-.46-9.99,.1-14.73,1.7-2.16,.72-4.49-.43-5.21-2.59-.15-.43-.22-.87-.22-1.31,0-1.72,1.08-3.32,2.8-3.9,5.84-1.96,11.93-2.67,18.12-2.1,8.82,.82,16.96,4.13,23.54,9.59,1.75,1.45,1.99,4.04,.54,5.79-.81,.98-1.99,1.49-3.17,1.49Zm-100.31-12.13c-.37,0-.75-.05-1.13-.16-13.74-3.92-27.82-6.6-41.85-7.97-29.36-2.85-58.3-.21-86.01,7.87-2.18,.63-4.46-.62-5.1-2.8-.11-.39-.16-.77-.16-1.15,0-1.78,1.17-3.42,2.96-3.95,28.72-8.37,58.7-11.12,89.11-8.16,14.53,1.41,29.1,4.19,43.32,8.24,1.81,.52,2.99,2.17,2.99,3.96,0,.37-.05,.75-.16,1.13-.52,1.81-2.16,2.98-3.96,2.98Zm51.85-.55c-.62,0-1.25-.14-1.84-.43-28.98-14.51-59.63-23.42-91.11-26.48-19.17-1.86-38.55-1.52-57.61,1.03-2.24,.32-4.32-1.28-4.62-3.53-.02-.19-.04-.37-.04-.55,0-2.03,1.5-3.8,3.57-4.07,19.68-2.63,39.7-2.98,59.49-1.06,32.49,3.16,64.12,12.35,94,27.31,1.44,.72,2.27,2.17,2.27,3.68,0,.62-.14,1.25-.44,1.84-.72,1.44-2.17,2.27-3.68,2.27Zm11.52-14.37c-1.91,0-3.62-1.34-4.02-3.28-.06-.28-.09-.56-.09-.84,0-1.91,1.34-3.62,3.28-4.02,.34-.07,.68-.13,1.02-.19,.07-.02,.13-.03,.2-.04,.37-.07,.74-.12,1.12-.17l.87-.13c.06,0,.13-.02,.19-.03,.57-.09,1.15-.18,1.73-.25,.05,0,.1-.01,.16-.02,.57-.07,1.15-.11,1.72-.16l1.02-.09c.53-.05,1.05-.09,1.58-.12,.37-.02,.74-.02,1.12-.03h.5c1.15,.02,2.25,.43,3.02,1.19,.73,.73,1.19,1.73,1.21,2.84,.04,2.27-1.76,4.15-4.04,4.19h-.6c-.09,0-.18,0-.27,0h-.54s0,.01,0,.01c-.43,.02-.84,.06-1.25,.1l-1.09,.09h-.02c-.51,.04-1.03,.08-1.54,.15-.02,0-.04,0-.06,0-.49,.06-.98,.14-1.46,.22-.02,0-.05,0-.08,.01l-.33,.05s-.02,0-.03,0l-.6,.09c-.63,.1-1.27,.19-1.89,.32-.28,.06-.56,.08-.84,.08Zm-9.51-6.24c-.58,0-1.18-.12-1.74-.39-29.21-13.71-59.94-22.21-91.33-25.26-1.48-.14-2.95-.24-4.42-.33l-2.3-.16c-2.16-.16-3.81-1.97-3.81-4.1,0-.1,0-.2,0-.3,.17-2.27,2.15-3.93,4.4-3.8l2.24,.15c1.56,.1,3.12,.2,4.68,.36,32.33,3.14,63.97,11.89,94.03,26,1.49,.7,2.37,2.18,2.37,3.72,0,.59-.13,1.19-.39,1.75-.7,1.49-2.18,2.37-3.73,2.37Z"></path><path class="cls-3" d="M472.19,199.62c-2.85,0-5.74-.13-8.69-.4l-.53-.05c-50.07-4.87-88.93-50.55-90.41-106.25-.06-2.36-.35-4.74-.85-7.07-.48-2.22,.94-4.41,3.16-4.88,2.22-.49,4.41,.94,4.88,3.16,.6,2.83,.95,5.72,1.03,8.58,1.37,51.56,37.04,93.81,82.96,98.28l.51,.05c22.41,2.08,41.82-4.57,51.88-17.79,2.88-3.78,5.11-8.29,6.43-13.04,.61-2.19,2.88-3.46,5.07-2.86,2.19,.61,3.47,2.88,2.86,5.07-1.62,5.82-4.25,11.15-7.81,15.82-10.42,13.68-28.91,21.4-50.5,21.4Zm-3.76-18.28c-27.92,0-51.97-17.14-66.19-47.29-5.53-11.11-8.87-23.28-9.9-36.1-.16-1.85-.29-3.72-.34-5.56-.04-1.39-.16-2.75-.3-4.11-.22-2.26,1.43-4.27,3.69-4.49,2.26-.2,4.27,1.43,4.49,3.7,.15,1.55,.29,3.11,.33,4.69,.04,1.67,.16,3.37,.31,5.08,.95,11.8,4.01,22.95,9.11,33.2,6.23,13.2,24.39,43.58,60.43,42.63,4.87-.13,9.26-2.56,12.06-6.66,2.9-4.24,3.59-9.65,1.85-14.46-2.23-6.19-7.58-10.5-13.64-10.99-22.55-1.82-38.91-27.61-39.49-49.62-.07-2.73-.27-5.55-.59-8.4-.25-2.26,1.37-4.29,3.63-4.54,2.25-.31,4.29,1.37,4.55,3.63,.34,3.07,.56,6.13,.63,9.1,.49,18.47,14.25,40.2,31.93,41.63,9.26,.75,17.39,7.19,20.72,16.4,2.63,7.29,1.58,15.47-2.8,21.89-4.31,6.31-11.1,10.05-18.64,10.25-.62,.02-1.24,.02-1.86,.02Zm33.57-4.75c-.67,0-1.36-.16-1.99-.52-1.36-.75-2.12-2.15-2.12-3.6,0-.67,.17-1.35,.52-1.98,2.8-5.06,4.24-10.74,4.24-16.42,0-3.51-.54-7.03-1.65-10.41-2.33-7.14-6.95-13.43-13.02-17.7-3.21-2.27-7.02-3.67-11.06-5.16-4.07-1.5-8.27-3.05-12.16-5.61-7.44-4.9-11.15-14.44-11.79-22.62-.07-.86-.1-1.71-.1-2.53v-.12c0-2.27,1.85-4.1,4.11-4.1h.02c2.27,0,4.1,1.85,4.1,4.11v.11c0,6.42,2.8,14.73,8.18,18.27,2.8,1.85,6.01,3.11,9.41,4.37,.35,.13,.71,.26,1.07,.4,4.35,1.61,8.86,3.27,12.95,6.15,7.51,5.29,13.22,13.06,16.1,21.87,1.37,4.21,2.05,8.59,2.05,12.96,0,7.07-1.78,14.12-5.26,20.41-.75,1.36-2.15,2.12-3.6,2.12Z"></path><path class="cls-5" d="M148.29,286.71c-1.42,0-2.79-.73-3.56-2.04-1.14-1.97-.48-4.48,1.49-5.62,1.71-1,3.27-2.07,4.64-3.19,5.49-4.52,9.39-10.51,11.27-17.33,2.09-7.52,5.99-13.67,11.6-18.29,8.85-7.28,20.92-9.66,34.01-6.7,12.69,2.88,24.59,10.42,33.5,21.25,6.51,7.92,11.06,17.22,13.14,26.91,.48,2.22-.94,4.41-3.16,4.89-2.22,.48-4.41-.94-4.89-3.16-1.81-8.41-5.77-16.51-11.45-23.41-7.64-9.29-18.2-16.01-28.96-18.46-10.54-2.38-20.12-.6-26.96,5.03-4.28,3.52-7.28,8.27-8.9,14.13-2.34,8.46-7.17,15.89-13.98,21.49-1.71,1.41-3.64,2.74-5.73,3.95-.65,.38-1.36,.56-2.06,.56Z"></path><path class="cls-19" d="M176.38,286.7c-.82,0-1.65-.24-2.37-.75-1.86-1.31-2.3-3.87-1-5.73,3.57-5.07,6.21-10.63,7.83-16.51,1.01-3.64,2.72-6.41,5.22-8.47,4.53-3.73,11.61-4.54,19.44-2.22,7.75,2.29,15.1,7.3,20.7,14.11,3.51,4.27,6.17,9.02,7.91,14.11,.73,2.15-.42,4.49-2.57,5.22-2.16,.73-4.49-.42-5.22-2.57-1.41-4.15-3.59-8.03-6.47-11.53-4.57-5.56-10.49-9.62-16.68-11.45-5.01-1.49-9.57-1.22-11.88,.69-1.19,.98-1.96,2.3-2.52,4.31-1.88,6.79-4.92,13.2-9.03,19.05-.8,1.14-2.07,1.75-3.37,1.75Z"></path><path class="cls-7" d="M199.01,286.7c-.83,0-1.67-.25-2.4-.78-1.84-1.33-2.26-3.9-.93-5.74,1.82-2.53,4.75-4.1,7.83-4.2,3.01-.06,5.74,1.15,7.63,3.42l.33,.4c.14,.17,.3,.42,.43,.64,1.12,1.82,.65,4.23-1.12,5.49-1.85,1.33-4.42,.9-5.74-.96-.04-.06-.09-.14-.15-.22-.05-.06-.09-.11-.1-.12-.08-.1-.43-.49-1-.43-.55,.02-1.1,.32-1.44,.79-.8,1.12-2.06,1.71-3.34,1.71Z"></path><path class="cls-12" d="M283.49,262.49c-1.62,0-3.16-.96-3.81-2.55-3.61-8.81-8.58-17.09-14.78-24.62-14.45-17.57-33.98-29.16-54.99-32.64-20.79-3.44-40.56,1.49-55.65,13.9-9.58,7.88-16.74,18.48-20.71,30.64-.71,2.16-3.03,3.33-5.19,2.63-1.74-.57-2.84-2.18-2.84-3.91,0-.42,.07-.85,.2-1.28,4.46-13.66,12.52-25.57,23.31-34.44,16.95-13.94,39.04-19.5,62.22-15.66,22.97,3.81,44.28,16.43,60,35.53h0c.62,.75,1.23,1.52,1.83,2.29,5.23,6.73,9.59,13.98,13,21.62,.04,.08,.08,.17,.11,.25,.06,.13,.12,.26,.18,.4,.1,.24,.21,.48,.31,.72,.21,.48,.41,.97,.61,1.45,.21,.51,.31,1.04,.31,1.56,0,1.62-.96,3.15-2.55,3.81-.51,.21-1.04,.31-1.56,.31Z"></path></g><polygon class="cls-13" points="1056.23 118.69 896.51 146.85 896.51 49.13 1056.23 20.96 1056.23 118.69"></polygon><g><path class="cls-2" d="M943.29,118.11c-16.59,2.93-29.14-5.99-29.14-23.9s12.85-31.3,29.34-34.21c16.59-2.93,29.34,5.96,29.34,23.87s-12.95,31.32-29.54,34.25Zm0-14.97c6.17-1.09,11.94-6.66,11.94-16.17s-5.67-13.07-11.74-12c-6.27,1.11-11.74,6.52-11.74,16.13s5.26,13.14,11.53,12.03Z"></path><path class="cls-2" d="M1020.99,72.94c0-7.69-4.25-11.19-10.83-10.03-6.58,1.16-10.83,6.16-10.83,13.85v30.66l-17.3,3.05V54.01l17.3-3.05v7.49c3.44-5.36,9.51-9.77,17.1-11.11,13.05-2.3,21.75,5.07,21.75,20.25v32.99l-17.2,3.03v-30.66Z"></path></g><g><path d="M646.95,41.96h-42.8v23.47h37.85v21.81h-37.85v25.45h42.8v22.64h-71.07V19.31h71.07v22.64Z"></path><path d="M693.56,135.33h-28.26V43.11h28.26v15.37c6.45-9.75,16.53-16.36,28.92-16.36v29.91h-7.77c-13.39,0-21.15,4.63-21.15,20.49v42.8Z"></path><path d="M733.39,18.32c0-8.59,6.78-15.37,16.86-15.37s16.69,6.78,16.69,15.37-6.78,15.2-16.69,15.2-16.86-6.78-16.86-15.2Z"></path><path d="M825.45,41.79c23.14,0,39.5,12.72,44.29,34.71h-30.08c-2.31-6.45-6.94-10.58-14.71-10.58-10.08,0-17.02,7.93-17.02,23.3s6.94,23.3,17.02,23.3c7.77,0,12.23-3.8,14.71-10.58h30.08c-4.79,21.32-21.15,34.71-44.29,34.71-27.1,0-46.27-18.18-46.27-47.43s19.17-47.43,46.27-47.43Z"></path><path d="M576.11,173.45h28.26v116.02h-28.26v-116.02Z"></path><path d="M659.9,195.93c12.23,0,22.81,5.62,28.43,14.05v-42.8h28.26v122.3h-28.26v-13.22c-5.12,8.43-14.87,14.54-28.43,14.54-22.64,0-40.65-18.51-40.65-47.6s18.01-47.27,40.65-47.27Zm8.26,24.62c-10.58,0-20.16,7.93-20.16,22.64s9.59,22.97,20.16,22.97,20.16-8.1,20.16-22.81-9.42-22.81-20.16-22.81Z"></path><path d="M778.07,290.79c-27.1,0-46.61-18.18-46.61-47.43s19.17-47.43,46.61-47.43,45.94,17.85,45.94,45.94c0,2.64-.17,5.46-.5,8.26h-63.96c.99,12.06,8.43,17.68,17.52,17.68,7.93,0,12.39-3.97,14.71-8.92h30.08c-4.46,18.01-20.82,31.9-43.79,31.9Zm-18.35-56.36h35.37c0-10.08-7.93-15.86-17.35-15.86s-16.36,5.62-18.01,15.86Z"></path><path d="M902.52,239.39c0-12.56-6.94-19.5-17.69-19.5s-17.68,6.94-17.68,19.5v50.08h-28.26v-92.22h28.26v12.23c5.62-7.77,15.53-13.22,27.93-13.22,21.32,0,35.53,14.54,35.53,39.33v53.88h-28.09v-50.08Z"></path><path d="M954.75,220.72h-11.24v-23.47h11.24v-22.48h28.26v22.48h18.51v23.47h-18.51v37.02c0,5.45,2.31,7.77,8.6,7.77h10.08v23.96h-14.38c-19.17,0-32.56-8.1-32.56-32.06v-36.69Z"></path><path d="M1014.74,172.46c0-8.59,6.78-15.37,16.86-15.37s16.69,6.78,16.69,15.37-6.78,15.2-16.69,15.2-16.86-6.78-16.86-15.2Z"></path><path d="M1070.6,220.72h-11.24v-23.47h11.24v-22.48h28.26v22.48h18.51v23.47h-18.51v37.02c0,5.45,2.31,7.77,8.59,7.77h10.08v23.96h-14.38c-19.17,0-32.56-8.1-32.56-32.06v-36.69Z"></path><path d="M1196.86,197.25h30.57l-57.84,136.01h-30.41l21.15-46.94-37.51-89.08h31.57l21.32,57.68,21.15-57.68Z"></path><path d="M750.19,47.27c-5.07,0-9.85-1.15-14.16-3.16v91.21h28.26V44.15c-4.29,1.99-9.06,3.13-14.1,3.13Z"></path><path d="M1031.03,200.75c-5.07,0-9.85-1.15-14.16-3.16v91.21h28.26v-91.19c-4.29,1.99-9.06,3.13-14.1,3.13Z"></path></g></svg>